<svg width="300" height="300" viewBox="0 0 300 300" fill="none" xmlns="http://www.w3.org/2000/svg">
<path d="M266.352 192.12H157.902C155.964 192.12 154.386 190.542 154.386 188.604V30.6361C154.386 28.6981 155.964 27.1201 157.902 27.1201H266.352C268.29 27.1201 269.868 28.6981 269.868 30.6361V188.604C269.868 190.542 268.29 192.12 266.352 192.12ZM157.902 27.2701C156.048 27.2701 154.536 28.7821 154.536 30.6361V188.604C154.536 190.458 156.048 191.97 157.902 191.97H266.352C268.206 191.97 269.718 190.458 269.718 188.604V30.6361C269.718 28.7821 268.206 27.2701 266.352 27.2701H157.902Z" fill="#E0E0E0"/>
<path d="M141.294 192.12H32.85C30.912 192.12 29.334 190.542 29.334 188.604V30.6361C29.334 28.6981 30.912 27.1201 32.85 27.1201H141.294C143.232 27.1201 144.81 28.6981 144.81 30.6361V188.604C144.81 190.542 143.232 192.12 141.294 192.12ZM32.85 27.2701C30.996 27.2701 29.484 28.7821 29.484 30.6361V188.604C29.484 190.458 30.996 191.97 32.85 191.97H141.294C143.148 191.97 144.66 190.458 144.66 188.604V30.6361C144.66 28.7821 143.148 27.2701 141.294 27.2701H32.85Z" fill="#E0E0E0"/>
<path d="M300 228.762H0V228.912H300V228.762Z" fill="#E0E0E0"/>
<path d="M40.638 237.318H31.002V237.468H40.638V237.318Z" fill="#E0E0E0"/>
<path d="M134.328 235.692H102.21V235.842H134.328V235.692Z" fill="#E0E0E0"/>
<path d="M62.9878 242.892H41.2378V243.042H62.9878V242.892Z" fill="#E0E0E0"/>
<path d="M252.924 235.614H227.01V235.764H252.924V235.614Z" fill="#E0E0E0"/>
<path d="M262.068 235.614H258.27V235.764H262.068V235.614Z" fill="#E0E0E0"/>
<path d="M222.06 239.352H189.726V239.502H222.06V239.352Z" fill="#E0E0E0"/>
<path d="M42.0483 209.304C42.0423 209.094 41.3403 188.358 37.9683 185.082C34.6863 181.896 30.9243 184.962 30.7623 185.094L30.4263 184.686C30.4683 184.65 34.7163 181.182 38.3343 184.698C41.8563 188.124 42.5463 208.422 42.5763 209.28L42.0483 209.298V209.304Z" fill="#E0E0E0"/>
<path d="M42.3364 213.384C42.3124 213.138 40.0324 188.49 49.0324 178.164L49.4284 178.512C40.5784 188.67 42.8344 213.09 42.8584 213.336L42.3304 213.39L42.3364 213.384Z" fill="#E0E0E0"/>
<path d="M42.0062 210.774L41.4782 210.738C41.4962 210.456 43.2422 182.724 36.6362 176.652L36.9962 176.262C43.7822 182.502 42.0842 209.622 42.0062 210.774Z" fill="#E0E0E0"/>
<path d="M42.8644 210.762H42.3364C42.3424 209.994 42.5524 192.024 47.6584 189.096C48.7924 188.442 49.9024 188.334 50.9584 188.772C54.0424 190.05 55.5724 195.54 55.6384 195.774L55.1284 195.912C55.1164 195.858 53.6044 190.434 50.7544 189.258C49.8544 188.886 48.9004 188.988 47.9164 189.552C43.0744 192.33 42.8584 210.576 42.8584 210.762H42.8644Z" fill="#E0E0E0"/>
<path d="M40.8782 210.774L40.3502 210.744C40.3562 210.6 41.1182 196.542 37.3262 191.586C36.4082 190.386 35.4062 189.816 34.3562 189.888C31.8722 190.062 29.7842 193.698 29.7662 193.734L29.3042 193.476C29.3942 193.314 31.5482 189.552 34.3202 189.36C35.5622 189.27 36.7142 189.912 37.7462 191.262C41.6582 196.368 40.9142 210.18 40.8782 210.768V210.774Z" fill="#E0E0E0"/>
<path d="M41.7121 212.682C41.6101 211.32 39.2341 179.214 43.4161 173.556L43.8421 173.868C39.7741 179.37 42.2161 212.304 42.2401 212.64L41.7121 212.682Z" fill="#E0E0E0"/>
<path d="M52.0982 192.024C52.0982 192.024 49.5902 192.948 50.3342 195.132C51.0782 197.316 59.0162 200.91 59.0162 200.91C59.0162 200.91 62.3402 197.862 59.2862 192.912C56.2322 187.956 52.1642 190.464 52.0982 192.024Z" fill="#EBEBEB"/>
<path d="M41.1901 187.866C41.1901 187.866 43.8601 187.752 44.0161 190.056C44.1661 192.36 38.2261 198.732 38.2261 198.732C38.2261 198.732 33.9841 197.202 34.8961 191.454C35.8081 185.706 40.5241 186.45 41.1901 187.866Z" fill="#EBEBEB"/>
<path d="M38.9281 176.844C38.9281 176.844 40.7101 176.652 40.5661 175.566C40.4221 174.48 33.6421 171.69 29.6401 176.202C29.6401 176.202 32.2021 180.6 35.9041 180.66C39.6061 180.72 38.9281 176.838 38.9281 176.838V176.844Z" fill="#EBEBEB"/>
<path d="M42.2522 174.21C42.2522 174.21 40.6382 174.99 40.1882 173.994C39.7382 172.998 44.0162 167.04 49.8002 168.756C49.8002 168.756 49.9562 173.844 46.8422 175.854C43.7282 177.864 42.2582 174.21 42.2582 174.21H42.2522Z" fill="#EBEBEB"/>
<path d="M33.816 191.148C33.816 191.148 35.046 190.158 33.72 189.672C32.394 189.186 25.884 189.324 25.812 195.774C25.812 195.774 33.396 197.034 34.332 194.58C35.268 192.126 33.816 191.154 33.816 191.154V191.148Z" fill="#EBEBEB"/>
<path d="M49.2778 176.682C49.2778 176.682 48.0478 175.692 49.3738 175.206C50.6998 174.72 57.2098 174.858 57.2758 181.308C57.2758 181.308 49.6918 182.568 48.7558 180.114C47.8198 177.66 49.2718 176.688 49.2718 176.688L49.2778 176.682Z" fill="#EBEBEB"/>
<path d="M45.2701 181.878C45.2701 181.878 45.1621 180.672 46.1341 181.146C47.1061 181.62 50.5021 185.28 46.9861 188.754C46.9861 188.754 42.2521 185.244 43.1041 183.42C43.9561 181.596 45.2701 181.878 45.2701 181.878Z" fill="#EBEBEB"/>
<path d="M32.7182 183.6C32.7182 183.6 33.4502 182.634 32.3762 182.52C31.3022 182.4 26.4782 183.69 27.6002 188.502C27.6002 188.502 33.4742 188.058 33.7262 186.06C33.9782 184.062 32.7182 183.6 32.7182 183.6Z" fill="#EBEBEB"/>
<path d="M53.0821 228.636H32.9161L30.7441 206.556H55.2541L53.0821 228.636Z" fill="#F0F0F0"/>
<path d="M55.8178 204.12H29.1538V208.992H55.8178V204.12Z" fill="#E6E6E6"/>
<path d="M276.096 105.498H218.364V106.47H276.096V105.498Z" fill="#E0E0E0"/>
<path d="M254.97 124.92C253.596 138.576 254.622 149.046 255.138 161.55C255.684 174.81 253.482 187.854 253.848 201.876C254.676 201.354 255.42 201.096 256.17 201.876C257.262 202.638 258.21 202.884 259.056 201.876C260.166 201.876 260.922 201.348 261.54 201.876C262.368 190.986 263.478 179.568 262.368 172.128C262.212 170.61 266.778 171.018 266.874 168.882C267.354 159.054 265.308 141.024 263.61 125.028C263.61 124.914 263.598 124.8 263.568 124.686L261.66 116.562C261.564 116.136 261.366 115.74 261.096 115.404L260.58 114.756L259.752 110.61V105.498H259.272V110.58L257.79 112.944L253.176 117.048L254.976 124.926L254.97 124.92Z" fill="#E0E0E0"/>
<path d="M224.406 116.592L223.032 123.966C223.032 124.032 223.032 124.092 223.032 124.158L220.722 201.87C221.55 200.214 222.288 200.508 223.044 201.87C224.07 203.214 225.03 203.268 225.93 201.87C227.082 200.646 227.814 201 228.414 201.87L229.242 172.122L230.484 125.022C230.502 124.908 230.502 124.794 230.484 124.68L228.576 116.556C228.48 116.13 228.282 115.734 228.012 115.398L227.496 114.75L226.668 110.604V105.492H226.188V110.574L225.684 114.852L224.952 115.68C224.682 115.926 224.496 116.238 224.406 116.592Z" fill="#E0E0E0"/>
<path d="M234.138 116.592L232.764 123.966C232.764 124.032 232.764 124.092 232.764 124.158C230.706 148.296 230.106 174.426 230.454 201.87C231.282 200.214 232.014 200.508 232.764 201.87C233.79 203.214 234.75 203.268 235.656 201.87C236.802 200.646 237.528 201 238.14 201.87C238.968 190.98 240.09 179.562 238.968 172.122C238.14 163.644 242.28 144.504 240.21 125.022C240.222 124.908 240.222 124.794 240.21 124.68L238.296 116.556C238.2 116.13 238.002 115.734 237.732 115.398L237.216 114.75L236.388 110.604V105.492H235.908V110.574L235.32 114.852L234.588 115.68C234.354 115.938 234.198 116.25 234.132 116.592H234.138Z" fill="#E0E0E0"/>
<path d="M265.512 116.592L264.138 123.966C264.138 124.032 264.138 124.092 264.138 124.158C262.08 148.296 261.48 174.426 261.828 201.87C262.656 200.214 263.388 200.508 264.138 201.87C265.164 203.214 266.124 203.268 267.03 201.87C268.176 200.646 268.902 201 269.514 201.87C270.342 190.98 271.464 179.562 270.342 172.122C269.514 163.644 273.654 144.504 271.584 125.022C271.596 124.908 271.596 124.794 271.584 124.68L269.67 116.556C269.568 116.136 269.382 115.74 269.112 115.398L268.596 114.75L267.768 110.604V105.492H267.288V110.574L266.784 114.852L266.052 115.68C265.794 115.932 265.602 116.244 265.506 116.592H265.512Z" fill="#E0E0E0"/>
<path d="M245.844 116.592L244.434 123.966V124.158C240.798 136.5 242.91 149.094 243.426 161.55C243.966 174.81 241.77 187.854 242.136 201.876C242.964 201.354 243.702 201.096 244.446 201.876C245.538 202.638 246.486 202.884 247.332 201.876C248.442 201.876 249.198 201.348 249.816 201.876C250.644 190.986 251.754 179.568 250.644 172.128C250.488 170.61 255.054 171.018 255.15 168.882C255.63 159.054 253.584 141.024 251.886 125.028C251.886 124.914 251.874 124.8 251.844 124.686L249.936 116.562C249.84 116.136 249.642 115.74 249.372 115.404L248.856 114.756L248.028 110.61V105.498H247.548V110.58L247.044 114.858L246.312 115.686C246.072 115.938 245.91 116.256 245.838 116.598L245.844 116.592Z" fill="#E0E0E0"/>
<path d="M149.124 55.8662H105.114V111.918H149.124V55.8662Z" fill="#E6E6E6"/>
<path d="M146.148 59.6523H108.084V108.132H146.148V59.6523Z" fill="#FAFAFA"/>
<path d="M126.798 79.2063C129.068 79.2063 130.908 77.3662 130.908 75.0963C130.908 72.8264 129.068 70.9863 126.798 70.9863C124.528 70.9863 122.688 72.8264 122.688 75.0963C122.688 77.3662 124.528 79.2063 126.798 79.2063Z" fill="#E0E0E0"/>
<path d="M127.122 80.9102H136.068L131.592 88.6561L127.122 96.4081L122.646 88.6561L118.17 80.9102H127.122Z" fill="#E0E0E0"/>
<path d="M203.868 38.646H160.746V93.564H203.868V38.646Z" fill="#E6E6E6"/>
<path d="M200.958 42.354H163.656V89.856H200.958V42.354Z" fill="#FAFAFA"/>
<path d="M186.018 57.486C186.018 59.712 184.218 61.512 181.992 61.512C179.766 61.512 177.966 59.712 177.966 57.486C177.966 55.26 179.766 53.46 181.992 53.46C184.218 53.46 186.018 55.26 186.018 57.486Z" fill="#E0E0E0"/>
<path d="M182.304 78.372H173.538L177.924 70.776L182.304 63.186L186.69 70.776L191.076 78.372H182.304Z" fill="#E0E0E0"/>
<path d="M79.0858 99.7141C80.0832 99.7141 80.8918 98.9055 80.8918 97.908C80.8918 96.9106 80.0832 96.1021 79.0858 96.1021C78.0884 96.1021 77.2798 96.9106 77.2798 97.908C77.2798 98.9055 78.0884 99.7141 79.0858 99.7141Z" fill="#E0E0E0"/>
<path d="M36.2762 99.7141C37.2736 99.7141 38.0822 98.9055 38.0822 97.908C38.0822 96.9106 37.2736 96.1021 36.2762 96.1021C35.2788 96.1021 34.4702 96.9106 34.4702 97.908C34.4702 98.9055 35.2788 99.7141 36.2762 99.7141Z" fill="#E0E0E0"/>
<path d="M281.25 269.034C281.25 271.068 222.486 272.712 150 272.712C77.514 272.712 18.75 271.062 18.75 269.034C18.75 267.006 77.514 265.356 150 265.356C222.486 265.356 281.25 267.006 281.25 269.034Z" fill="#F5F5F5"/>
<path d="M282.846 82.2241H211.62V88.7401H282.846V82.2241Z" fill="#263238"/>
<path d="M222.834 71.2858L222.39 71.2078C222.696 69.4918 223.014 67.7218 223.692 66.0658C224.22 64.7638 225.222 62.9758 226.968 61.8778C229.554 60.2518 233.238 60.6418 235.728 62.8018C237.954 64.7338 239.172 67.9678 238.908 71.2438L238.458 71.2078C238.71 68.0698 237.552 64.9738 235.434 63.1378C233.13 61.1338 229.59 60.7558 227.208 62.2558C225.564 63.2938 224.616 64.9918 224.112 66.2338C223.458 67.8478 223.14 69.5938 222.84 71.2858H222.834Z" fill="#263238"/>
<path d="M240.966 74.7298C240.966 78.8698 236.472 82.2238 230.934 82.2238C225.396 82.2238 220.902 78.8698 220.902 74.7298C220.902 72.8998 221.388 70.8478 222.852 69.5458C224.694 67.9078 227.85 67.2358 230.934 67.2358C233.61 67.2358 236.736 67.7698 238.536 69.0478C240.456 70.4158 240.966 72.5878 240.966 74.7298Z" fill="#BF0002"/>
<path opacity="0.3" d="M240.966 74.7298C240.966 78.8698 236.472 82.2238 230.934 82.2238C225.396 82.2238 220.902 78.8698 220.902 74.7298C220.902 72.8998 221.388 70.8478 222.852 69.5458C224.694 67.9078 227.85 67.2358 230.934 67.2358C233.61 67.2358 236.736 67.7698 238.536 69.0478C240.456 70.4158 240.966 72.5878 240.966 74.7298Z" fill="black"/>
<path opacity="0.3" d="M221.574 72.0356C221.574 72.0356 224.502 75.5576 230.94 75.6176C237.372 75.6776 240.306 72.0356 240.306 72.0356C240.306 72.0356 237.852 76.9016 230.412 76.9016C224.97 76.9016 221.574 72.0356 221.574 72.0356Z" fill="black"/>
<path d="M230.61 74.4716C231.058 74.4716 231.42 74.1089 231.42 73.6616C231.42 73.2142 231.058 72.8516 230.61 72.8516C230.163 72.8516 229.8 73.2142 229.8 73.6616C229.8 74.1089 230.163 74.4716 230.61 74.4716Z" fill="#263238"/>
<path d="M275.43 67.8901H253.374V81.9421H275.43V67.8901Z" fill="#BF0002"/>
<path d="M276.822 66.2998H251.982V72.1798H276.822V66.2998Z" fill="#BF0002"/>
<path opacity="0.3" d="M275.43 72.2339H253.374V73.6859H275.43V72.2339Z" fill="black"/>
<path opacity="0.3" d="M267.666 68.1602H261.144C260.614 68.1602 260.184 68.59 260.184 69.1202V69.3302C260.184 69.8604 260.614 70.2902 261.144 70.2902H267.666C268.196 70.2902 268.626 69.8604 268.626 69.3302V69.1202C268.626 68.59 268.196 68.1602 267.666 68.1602Z" fill="black"/>
<path d="M278.376 65.028C277.494 64.5 276.492 64.104 275.424 63.846C275.088 63.888 271.716 64.284 270.174 62.532C268.554 60.684 266.262 54.33 262.554 54.702C262.578 54.66 262.608 54.624 262.632 54.582C262.608 54.612 262.578 54.636 262.554 54.66C262.44 54.792 262.356 54.936 262.29 55.086C262.098 55.854 261.966 56.628 261.9 57.402C261.726 60.048 261.846 63.588 262.08 66.228H262.866L262.968 60.354C262.968 58.662 264.804 60.63 265.326 62.436C265.848 64.242 266.934 66.222 271.83 66.228C277.464 66.252 279.834 66.066 278.376 65.028Z" fill="#263238"/>
<path opacity="0.1" d="M278.376 65.028C277.494 64.5 276.492 64.104 275.424 63.846C275.088 63.888 271.716 64.284 270.174 62.532C268.554 60.684 266.262 54.33 262.554 54.702C262.578 54.66 262.608 54.624 262.632 54.582C262.608 54.612 262.578 54.636 262.554 54.66C262.44 54.792 262.356 54.936 262.29 55.086C262.098 55.854 261.966 56.628 261.9 57.402C261.726 60.048 261.846 63.588 262.08 66.228H262.866L262.968 60.354C262.968 58.662 264.804 60.63 265.326 62.436C265.848 64.242 266.934 66.222 271.83 66.228C277.464 66.252 279.834 66.066 278.376 65.028Z" fill="black"/>
<path d="M269.082 65.028C268.2 64.5 267.198 64.104 266.13 63.846C265.794 63.888 262.422 64.284 260.88 62.532C259.26 60.684 256.968 54.33 253.26 54.702C253.284 54.66 253.314 54.624 253.338 54.582C253.314 54.612 253.284 54.636 253.26 54.66C253.146 54.792 253.062 54.936 252.996 55.086C252.804 55.854 252.672 56.628 252.606 57.402C252.432 60.048 252.552 63.588 252.786 66.228H253.572L253.674 60.354C253.674 58.662 255.51 60.63 256.032 62.436C256.554 64.242 257.64 66.222 262.536 66.228C268.17 66.252 270.54 66.066 269.082 65.028Z" fill="#263238"/>
<path d="M66.5159 65.1598L66.0659 65.1358C66.0839 64.8118 66.0959 64.4698 66.1139 64.1158C66.2099 61.7998 66.3359 58.9138 67.5779 56.9758C68.8679 54.9658 71.0519 53.7718 74.0759 53.4178C76.8059 53.0998 79.5659 54.2578 81.1139 56.3638C82.8059 58.6618 82.9319 61.7038 82.9199 64.6258H82.4699C82.4819 61.7818 82.3619 58.8178 80.7539 56.6338C79.2959 54.6538 76.6979 53.5678 74.1299 53.8678C71.2499 54.2038 69.1739 55.3318 67.9559 57.2218C66.7739 59.0578 66.6599 61.8778 66.5639 64.1398C66.5519 64.4938 66.5339 64.8418 66.5159 65.1658V65.1598Z" fill="#263238"/>
<path d="M86.1059 78.5096H62.8799L65.2739 63.4136H84.2219L86.1059 78.5096Z" fill="#BF0002"/>
<path opacity="0.3" d="M65.2739 63.4136C65.2739 63.4136 68.1299 70.9316 74.4959 70.9616C80.8619 70.9856 84.2219 63.4136 84.2219 63.4136C84.2219 63.4136 81.1019 72.4196 74.4959 72.2876C67.8899 72.1496 65.2739 63.4136 65.2739 63.4136Z" fill="black"/>
<path d="M76.4699 68.2256H72.6899V68.9576H76.4699V68.2256Z" fill="#263238"/>
<path d="M52.902 75.312H29.094C28.4909 75.312 28.002 75.8009 28.002 76.404V77.304C28.002 77.9071 28.4909 78.396 29.094 78.396H52.902C53.505 78.396 53.994 77.9071 53.994 77.304V76.404C53.994 75.8009 53.505 75.312 52.902 75.312Z" fill="#BF0002"/>
<path d="M27.1919 73.3262V74.2202C27.2039 74.8382 27.7139 75.3242 28.3319 75.3122H53.0159C53.6339 75.3242 54.1439 74.8322 54.1559 74.2202V73.3262C54.1439 72.7082 53.6339 72.2162 53.0159 72.2282H28.3139C27.7019 72.2282 27.2039 72.7202 27.1919 73.3262Z" fill="#BF0002"/>
<path opacity="0.3" d="M27.1919 73.3262V74.2202C27.2039 74.8382 27.7139 75.3242 28.3319 75.3122H53.0159C53.6339 75.3242 54.1439 74.8322 54.1559 74.2202V73.3262C54.1439 72.7082 53.6339 72.2162 53.0159 72.2282H28.3139C27.7019 72.2282 27.2039 72.7202 27.1919 73.3262Z" fill="black"/>
<path d="M27.27 70.2358V71.1298C27.288 71.7538 27.804 72.2398 28.428 72.2218H53.562C54.186 72.2398 54.702 71.7478 54.72 71.1298V70.2358C54.708 69.6118 54.192 69.1198 53.568 69.1318H28.428C27.804 69.1138 27.288 69.6058 27.27 70.2238V70.2358Z" fill="#BF0002"/>
<path d="M27.918 67.1462V68.0402C27.918 68.6462 28.41 69.1382 29.022 69.1382H52.896C53.502 69.1382 54 68.6462 54 68.0402V67.1462C54 66.5402 53.502 66.0542 52.896 66.0542H28.986C28.392 66.0722 27.924 66.5582 27.918 67.1462Z" fill="#BF0002"/>
<path opacity="0.3" d="M27.918 67.1462V68.0402C27.918 68.6462 28.41 69.1382 29.022 69.1382H52.896C53.502 69.1382 54 68.6462 54 68.0402V67.1462C54 66.5402 53.502 66.0542 52.896 66.0542H28.986C28.392 66.0722 27.924 66.5582 27.918 67.1462Z" fill="black"/>
<path d="M29.3037 64.062V64.956C29.2797 65.526 29.7177 66.018 30.2877 66.048H51.6177C52.1937 66.018 52.6317 65.526 52.6017 64.956V64.062C52.6317 63.486 52.1937 62.994 51.6177 62.958H30.3177C29.7417 62.976 29.2857 63.456 29.3037 64.038V64.062Z" fill="#BF0002"/>
<path d="M93.4921 78.2817H22.2661V84.7977H93.4921V78.2817Z" fill="#263238"/>
<path d="M75.678 255.336H52.542V267.966H75.678V255.336Z" fill="#263238"/>
<path opacity="0.7" d="M75.678 255.336H52.542V267.966H75.678V255.336Z" fill="white"/>
<path d="M77.142 253.914H51.084V259.2H77.142V253.914Z" fill="#263238"/>
<path opacity="0.7" d="M77.142 253.914H51.084V259.2H77.142V253.914Z" fill="white"/>
<path opacity="0.3" d="M75.678 259.242H52.542V260.544H75.678V259.242Z" fill="black"/>
<path opacity="0.3" d="M66.3722 257.496H62.3882C61.8602 257.496 61.4282 257.07 61.4282 256.536C61.4282 256.008 61.8542 255.576 62.3882 255.576H66.3722C66.9002 255.576 67.3322 256.002 67.3322 256.536C67.3322 257.064 66.9062 257.496 66.3722 257.496Z" fill="black"/>
<path d="M53.1543 253.914H22.1763V267.966H53.1543V253.914Z" fill="#BF0002"/>
<path d="M55.1162 252.33H20.2202V258.21H55.1162V252.33Z" fill="#BF0002"/>
<path opacity="0.3" d="M53.1543 258.258H22.1763V259.71H53.1543V258.258Z" fill="black"/>
<path opacity="0.3" d="M41.0221 254.19H35.0401C34.5099 254.19 34.0801 254.62 34.0801 255.15V255.36C34.0801 255.89 34.5099 256.32 35.0401 256.32H41.0221C41.5523 256.32 41.9821 255.89 41.9821 255.36V255.15C41.9821 254.62 41.5523 254.19 41.0221 254.19Z" fill="black"/>
<path d="M53.1543 237.294H22.1763V252.33H53.1543V237.294Z" fill="#263238"/>
<path d="M55.1162 235.596H20.2202V241.89H55.1162V235.596Z" fill="#263238"/>
<path opacity="0.3" d="M53.1543 241.944H22.1763V243.498H53.1543V241.944Z" fill="black"/>
<path opacity="0.3" d="M41.0221 237.588H35.0401C34.5099 237.588 34.0801 238.018 34.0801 238.548V238.908C34.0801 239.439 34.5099 239.868 35.0401 239.868H41.0221C41.5523 239.868 41.9821 239.439 41.9821 238.908V238.548C41.9821 238.018 41.5523 237.588 41.0221 237.588Z" fill="black"/>
<path d="M254.124 169.728H250.488V261.318H254.124V169.728Z" fill="#263238"/>
<path opacity="0.3" d="M254.124 169.728H250.488V261.318H254.124V169.728Z" fill="white"/>
<path d="M237.024 267.966L250.488 258.984L252.3 260.424L240.498 267.966H237.024Z" fill="#263238"/>
<path opacity="0.3" d="M237.024 267.966L250.488 258.984L252.3 260.424L240.498 267.966H237.024Z" fill="white"/>
<path d="M267.582 267.966L254.118 258.984L252.3 260.424L264.108 267.966H267.582Z" fill="#263238"/>
<path opacity="0.3" d="M267.582 267.966L254.118 258.984L252.3 260.424L264.108 267.966H267.582Z" fill="white"/>
<path d="M233.544 135.054C233.184 132.822 234.57 130.692 236.76 130.134C240.582 129.168 246.858 127.452 247.62 126.438C248.724 124.968 249.462 117.972 249.462 117.972L253.878 118.71V180.726H236.394C236.394 180.726 236.58 176.676 238.05 171.522C239.52 166.368 242.1 161.034 242.1 161.034C242.1 161.034 234.918 143.484 233.55 135.054H233.544Z" fill="#BF0002"/>
<path d="M271.74 135.054C272.1 132.822 270.714 130.692 268.524 130.134C264.702 129.168 258.426 127.452 257.664 126.438C256.56 124.968 255.822 117.972 255.822 117.972L251.406 118.71V180.726H268.89C268.89 180.726 268.704 176.676 267.234 171.522C265.764 166.368 263.184 161.034 263.184 161.034C263.184 161.034 270.366 143.484 271.734 135.054H271.74Z" fill="#BF0002"/>
<path opacity="0.2" d="M252.954 122.334C255.525 122.334 257.61 118.265 257.61 113.244C257.61 108.224 255.525 104.154 252.954 104.154C250.382 104.154 248.298 108.224 248.298 113.244C248.298 118.265 250.382 122.334 252.954 122.334Z" fill="black"/>
<path d="M252.954 120.552C257.733 120.552 261.606 115.773 261.606 109.878C261.606 103.983 257.733 99.2041 252.954 99.2041C248.176 99.2041 244.302 103.983 244.302 109.878C244.302 115.773 248.176 120.552 252.954 120.552Z" fill="#BF0002"/>
<path d="M236.172 144.93C236.172 144.93 242.958 136.35 252.954 144.93C252.954 144.93 263.04 135.582 268.794 145.908L264.012 161.34C264.012 161.34 272.292 181.638 271.8 197.49L273.828 243.558H266.91L264.498 206.616L262.884 243.558H234.948C234.948 243.558 234.42 185.484 237.522 173.544C239.934 164.262 241.398 161.34 241.398 161.34L236.172 144.93Z" fill="#263238"/>
<path d="M53.3579 112.59H22.7879C22.3739 112.59 22.0139 112.32 21.8999 111.924C21.7859 111.522 21.9479 111.108 22.3019 110.886L37.4219 101.484L53.8079 110.934C54.1619 111.138 54.3299 111.54 54.2219 111.93C54.1139 112.326 53.7719 112.59 53.3639 112.59H53.3579ZM22.6139 111.396C22.4219 111.516 22.4579 111.702 22.4759 111.756C22.4939 111.81 22.5599 111.99 22.7879 111.99H53.3579C53.5619 111.99 53.6219 111.828 53.6339 111.774C53.6459 111.72 53.6759 111.552 53.5019 111.45L37.4279 102.18L22.6139 111.39V111.396Z" fill="#263238"/>
<path d="M37.536 102.138C37.506 102.138 37.476 102.138 37.446 102.126C37.29 102.072 37.2 101.904 37.254 101.748C37.602 100.686 37.77 99.582 37.758 98.46C37.758 97.98 37.704 97.374 37.392 96.948C37.182 96.654 36.828 96.462 36.42 96.42C35.994 96.372 35.58 96.492 35.292 96.744C34.704 97.26 34.632 98.298 35.142 98.922C35.244 99.048 35.226 99.24 35.1 99.342C34.974 99.45 34.782 99.426 34.68 99.3C33.966 98.43 34.068 97.02 34.896 96.294C35.31 95.928 35.892 95.76 36.486 95.82C37.062 95.886 37.566 96.168 37.878 96.594C38.286 97.158 38.352 97.884 38.358 98.454C38.37 99.636 38.196 100.806 37.824 101.934C37.782 102.06 37.662 102.144 37.536 102.144V102.138Z" fill="#263238"/>
<path d="M29.2738 105.936L37.7338 117.672L44.4298 105.402L53.8918 110.856L57.7318 117.546L52.2418 120.39L50.4778 131.268L52.2418 147.108C43.2298 149.592 34.3318 149.658 25.5598 147.108L27.0178 131.454L25.5598 122.19L18.3838 119.514L20.8558 111.942L29.2678 105.93L29.2738 105.936Z" fill="#BF0002"/>
<path opacity="0.3" d="M25.56 122.196L23.772 115.992V121.53L25.56 122.196Z" fill="black"/>
<path opacity="0.3" d="M52.2417 120.39L52.9437 114.27L53.9097 119.526L52.2417 120.39Z" fill="black"/>
<path opacity="0.3" d="M33.1797 138.888C33.1797 138.888 43.1037 133.584 45.5817 128.304C45.5817 128.304 43.2297 138.948 33.1797 138.888Z" fill="black"/>
<path d="M96.1674 112.59H65.5974C65.1834 112.59 64.8234 112.32 64.7094 111.924C64.5954 111.522 64.7574 111.108 65.1114 110.886L80.2314 101.484L96.6174 110.934C96.9714 111.138 97.1394 111.54 97.0314 111.936C96.9234 112.332 96.5814 112.596 96.1734 112.596L96.1674 112.59ZM65.4234 111.396C65.2314 111.516 65.2674 111.702 65.2854 111.756C65.3034 111.81 65.3694 111.99 65.5974 111.99H96.1674C96.3714 111.99 96.4314 111.828 96.4434 111.774C96.4554 111.72 96.4854 111.552 96.3114 111.45L80.2374 102.18L65.4234 111.39V111.396Z" fill="#263238"/>
<path d="M80.3456 102.138C80.3156 102.138 80.2856 102.138 80.2556 102.126C80.0996 102.072 80.0096 101.904 80.0636 101.748C80.4116 100.686 80.5796 99.576 80.5676 98.46C80.5676 97.98 80.5136 97.374 80.2016 96.948C79.9916 96.654 79.6376 96.462 79.2296 96.42C78.8036 96.372 78.3896 96.492 78.1016 96.744C77.5136 97.26 77.4416 98.298 77.9516 98.922C78.0536 99.048 78.0356 99.24 77.9096 99.342C77.7836 99.45 77.5916 99.426 77.4896 99.3C76.7756 98.43 76.8776 97.02 77.7056 96.294C78.1196 95.928 78.7016 95.76 79.2956 95.82C79.8716 95.886 80.3756 96.168 80.6876 96.594C81.0956 97.158 81.1616 97.884 81.1676 98.454C81.1796 99.636 81.0056 100.806 80.6336 101.934C80.5916 102.06 80.4776 102.144 80.3456 102.144V102.138Z" fill="#263238"/>
<path d="M72.1675 106.398L70.3555 107.472L71.6755 118.308L72.4915 118.086L72.1675 106.398Z" fill="#263238"/>
<path d="M88.8955 106.44L90.2815 107.232L87.5815 117.888L86.9395 117.654L88.7635 106.656L88.8955 106.44Z" fill="#263238"/>
<path d="M53.9097 192.156C57.6777 197.328 61.4817 199.086 65.0517 199.428C69.0837 199.296 72.2097 196.44 75.3717 192.156C76.1457 190.848 77.4057 190.53 77.7297 192.156L78.4257 194.124C78.5637 194.496 78.9777 194.688 79.3557 194.544C79.5717 194.466 79.7337 194.286 79.7997 194.064L80.2917 192.174C80.4417 191.412 81.1797 190.92 81.9357 191.07C82.4937 191.178 82.9317 191.616 83.0397 192.174L83.6277 195.27C84.5457 197.766 87.1257 201.402 92.8017 201.222C96.7317 201.27 99.6177 196.584 102.534 192.18L88.5837 136.17L71.4477 135.612L53.9097 192.162V192.156Z" fill="#BF0002"/>
<path opacity="0.2" d="M82.4579 191.334C82.0919 191.028 81.5999 190.938 81.1499 191.082V159.228L82.4579 191.334Z" fill="black"/>
<path d="M65.8799 119.316L70.8959 116.916C72.1259 116.322 73.5719 116.394 74.7359 117.102L80.0519 120.3L84.4319 117.57C86.0159 116.586 88.0019 116.532 89.6399 117.42L94.5899 120.108L89.3099 138.66L86.3699 139.896C85.6079 140.214 84.7439 140.154 84.0299 139.734L80.8259 137.58C80.1419 137.124 79.2479 137.142 78.5819 137.622L76.4759 139.146C75.6359 139.752 74.5679 139.95 73.5659 139.698L70.3799 138.876L65.8859 119.322L65.8799 119.316Z" fill="#BF0002"/>
<path d="M70.3739 138.87L69.5039 135.09C76.5599 136.35 83.4599 136.578 90.1679 135.606L89.4719 139.716C89.4719 139.716 80.0219 141.84 70.8719 138.888" fill="#263238"/>
<g opacity="0.2">
<path d="M71.6455 129.84C72.9175 130.56 74.4295 130.842 75.8815 130.638C77.3275 130.434 78.7015 129.744 79.7335 128.7C79.5415 130.32 78.0115 131.574 76.3915 131.772C74.7715 131.97 73.1455 131.274 71.8915 130.224" fill="black"/>
</g>
<path d="M168.936 121.53C167.04 121.362 163.218 124.686 162.198 125.724C161.178 126.762 153.108 130.266 153.108 130.266L144.144 119.712L140.586 121.638C140.586 121.638 148.47 137.64 149.28 138.546C150.09 139.452 151.416 139.566 153.834 139.224C156.252 138.882 169.872 129.714 169.536 129.6C169.194 129.486 168.948 121.53 168.948 121.53H168.936Z" fill="#B97964"/>
<path d="M144.198 120.258C144.198 120.258 145.266 118.914 145.086 117.51C144.906 116.1 145.14 114.93 144.936 113.892C144.732 112.854 144.024 114.096 143.784 114.828C143.544 115.566 143.262 116.394 142.734 116.124C142.212 115.854 139.47 111.588 138.702 111.294C137.934 111 138.162 111.828 138.162 111.828C138.162 111.828 137.466 110.808 136.992 110.976C136.866 111.018 136.65 111.318 136.89 111.834C137.436 112.986 138.714 115.356 138.714 115.356C138.642 115.218 136.86 112.41 136.542 112.026C136.122 111.522 135.666 111.498 135.384 111.75C134.982 112.11 137.07 115.662 137.052 115.878C137.052 115.878 135.918 113.79 135.216 113.79C134.514 113.79 135.162 115.14 135.954 116.226C136.68 117.222 137.844 119.364 138.684 120.3C139.716 121.458 140.67 122.004 142.056 121.572C143.442 121.14 144.198 120.258 144.198 120.258Z" fill="#B97964"/>
<path opacity="0.3" d="M138.18 117.216C138.132 117.216 138.09 117.192 138.06 117.156C138.012 117.09 138.024 116.994 138.09 116.946C139.014 116.274 140.004 115.686 141.042 115.212C141.114 115.176 141.204 115.212 141.24 115.284C141.276 115.362 141.24 115.446 141.168 115.482C140.148 115.95 139.17 116.526 138.264 117.186C138.24 117.204 138.204 117.216 138.174 117.216H138.18Z" fill="black"/>
<path opacity="0.3" d="M141.39 119.472C141.39 119.472 141.372 119.472 141.366 119.472C141.282 119.46 141.228 119.382 141.24 119.298C141.396 118.338 141.984 117.45 142.806 116.922C142.878 116.88 142.968 116.898 143.016 116.97C143.058 117.042 143.04 117.132 142.968 117.18C142.218 117.66 141.684 118.47 141.54 119.352C141.528 119.424 141.462 119.478 141.39 119.478V119.472Z" fill="black"/>
<path d="M171.84 98.3041L177.18 95.2441C174.222 92.6281 170.736 93.2521 168.474 95.3221C167.154 96.5341 167.436 97.6441 166.512 98.3161C165.444 99.0901 164.292 99.5101 163.434 100.584C162.168 102.174 162.942 104.892 162.036 106.794C161.484 107.952 160.332 108.762 160.224 110.082C160.122 111.342 161.058 112.488 160.938 113.748C160.872 114.432 160.494 115.14 160.746 115.764C160.956 116.292 161.514 116.472 162 116.574C165.486 117.282 169.134 116.904 172.458 115.482C172.776 115.344 173.124 115.17 173.268 114.804C173.37 114.546 173.346 114.24 173.316 113.958C172.818 108.744 172.326 103.53 171.828 98.3101L171.84 98.3041Z" fill="#263238"/>
<path d="M178.446 98.52L175.686 95.664C177.372 94.512 179.67 94.752 181.158 96.234C181.986 97.056 182.568 98.214 183.492 98.88C184.56 99.654 185.994 99.72 186.846 100.8C188.112 102.39 187.338 105.108 188.244 107.01C188.796 108.168 189.948 108.978 190.056 110.298C190.158 111.558 189.222 112.704 189.342 113.964C189.408 114.648 189.786 115.356 189.534 115.98C189.324 116.508 188.766 116.688 188.28 116.79C184.794 117.498 181.146 117.12 177.822 115.698C177.504 115.56 177.156 115.386 177.012 115.02C176.91 114.762 176.934 114.456 176.964 114.174C177.462 108.96 177.954 103.74 178.452 98.526L178.446 98.52Z" fill="#263238"/>
<path d="M181.65 120.955C181.65 120.955 179.55 121.987 176.964 124.219C176.424 124.681 175.83 125.083 175.2 125.419C173.502 126.319 171.96 126.835 171.54 126.019C171.444 125.839 171.378 125.647 171.324 125.443C170.97 124.075 171.114 122.149 172.224 121.267C173.472 120.271 174.072 119.425 173.85 118.081C173.73 117.319 173.454 116.533 173.136 115.765L174.576 114.901L179.712 109.717C179.124 112.897 178.95 119.077 181.656 120.961L181.65 120.955Z" fill="#B97964"/>
<path opacity="0.2" d="M173.886 118.368C175.296 117.528 176.85 116.076 176.664 114.414C176.58 113.712 176.43 113.052 176.262 112.626L173.394 116.424C173.628 117.036 173.718 117.444 173.886 118.368Z" fill="black"/>
<path d="M180.696 103.867C180.21 109.147 180.12 111.379 177.396 114.151C173.298 118.315 166.998 116.911 165.912 111.685C164.934 106.975 165.888 99.1386 171.072 96.9186C176.178 94.7346 181.182 98.5926 180.696 103.873V103.867Z" fill="#B97964"/>
<path d="M173.862 105.588C173.838 106.146 173.532 106.602 173.184 106.614C172.836 106.62 172.578 106.176 172.602 105.618C172.626 105.06 172.932 104.604 173.28 104.592C173.628 104.586 173.886 105.03 173.862 105.588Z" fill="#263238"/>
<path d="M168.66 105.571C168.636 106.111 168.33 106.555 167.988 106.561C167.64 106.567 167.382 106.135 167.412 105.595C167.436 105.055 167.742 104.611 168.084 104.605C168.432 104.599 168.69 105.031 168.66 105.571Z" fill="#263238"/>
<path d="M174.966 103.645C174.9 103.651 174.828 103.633 174.78 103.585C173.97 102.835 173.052 103.099 173.04 103.099C172.902 103.141 172.77 103.063 172.734 102.925C172.704 102.787 172.788 102.643 172.926 102.601C172.974 102.589 174.12 102.253 175.134 103.189C175.236 103.285 175.236 103.447 175.134 103.555C175.086 103.609 175.026 103.639 174.96 103.645H174.966Z" fill="#263238"/>
<path d="M166.908 102.924C166.854 102.906 166.812 102.864 166.788 102.81C166.74 102.69 166.8 102.54 166.92 102.474C168.126 101.796 169.02 102.312 169.056 102.336C169.164 102.402 169.188 102.546 169.11 102.672C169.038 102.792 168.888 102.84 168.786 102.78C168.75 102.762 168.054 102.372 167.094 102.912C167.034 102.948 166.968 102.954 166.908 102.936V102.924Z" fill="#263238"/>
<path d="M170.076 105.312C170.076 105.312 169.248 107.286 168.318 108.516C168.156 108.732 168.258 109.044 168.51 109.14C169.164 109.38 169.926 109.164 169.926 109.164L170.076 105.312Z" fill="#A24E3F"/>
<path d="M173.478 104.61L172.266 104.322C172.266 104.322 172.926 105.228 173.478 104.61Z" fill="#263238"/>
<path d="M168.204 104.616L166.992 104.328C166.992 104.328 167.652 105.234 168.204 104.616Z" fill="#263238"/>
<path d="M178.866 105.69C178.866 105.69 176.142 101.592 176.286 98.2744C176.286 98.2744 171.078 96.9184 166.92 102.468C166.26 103.35 165.864 104.826 165.27 106.098C165.27 106.098 165.492 95.6104 174.402 94.7884C183.3 93.9664 188.358 107.886 179.49 111.126C179.49 111.126 180.552 108.252 178.866 105.69Z" fill="#263238"/>
<path d="M182.292 108.168C181.668 109.248 180.654 109.932 179.73 110.16C178.332 110.508 177.612 108.264 178.086 106.866C178.518 105.606 179.886 104.772 181.248 105.048C182.586 105.318 183.006 106.932 182.292 108.168Z" fill="#B97964"/>
<path opacity="0.2" d="M179.346 108.037H179.334C179.25 108.037 179.19 107.959 179.196 107.875C179.232 107.335 179.484 106.819 179.892 106.459C180.3 106.099 180.846 105.919 181.386 105.949C181.47 105.949 181.53 106.027 181.524 106.111C181.524 106.195 181.452 106.261 181.368 106.249C180.912 106.219 180.438 106.381 180.09 106.687C179.742 106.993 179.526 107.437 179.49 107.899C179.49 107.977 179.418 108.037 179.34 108.037H179.346Z" fill="black"/>
<path d="M171.612 110.91C171.462 110.91 171.3 110.892 171.126 110.856C171.048 110.838 170.994 110.76 171.012 110.682C171.03 110.604 171.102 110.544 171.192 110.568C172.602 110.856 173.076 109.644 173.1 109.596C173.13 109.518 173.214 109.482 173.292 109.506C173.37 109.536 173.412 109.62 173.382 109.698C173.382 109.71 172.92 110.916 171.618 110.916L171.612 110.91Z" fill="#263238"/>
<path d="M181.968 110.334C181.968 110.928 181.488 111.408 180.894 111.408C180.3 111.408 179.82 110.928 179.82 110.334C179.82 109.74 180.3 109.26 180.894 109.26C181.488 109.26 181.968 109.74 181.968 110.334Z" fill="#BF0002"/>
<path d="M217.314 199.386C213.03 198.42 208.572 198.9 204.234 199.572C196.002 200.85 187.794 202.854 180.27 206.556C171.15 207.816 158.46 207.846 156.084 211.434C179.628 221.478 207.468 210.744 218.136 203.958C219.012 203.4 219.978 202.608 219.924 201.534C219.858 200.292 218.484 199.644 217.32 199.38L217.314 199.386Z" fill="#BF0002"/>
<g opacity="0.2">
<path d="M217.314 199.386C213.03 198.42 208.572 198.9 204.234 199.572C196.002 200.85 187.794 202.854 180.27 206.556C171.15 207.816 158.46 207.846 156.084 211.434C179.628 221.478 207.468 210.744 218.136 203.958C219.012 203.4 219.978 202.608 219.924 201.534C219.858 200.292 218.484 199.644 217.32 199.38L217.314 199.386Z" fill="black"/>
</g>
<path d="M190.944 125.472C190.944 125.472 192.702 126.156 194.04 129.93C194.964 132.534 199.68 147.39 199.908 149.856C200.262 153.708 198.264 175.332 198.264 175.332L194.37 174.912C194.37 174.912 192.984 151.602 192.93 151.356C192.876 151.116 186.186 133.284 186.186 133.284L190.944 125.472Z" fill="#B97964"/>
<path d="M196.374 221.328C195.51 218.25 193.44 214.896 193.002 212.406C192.612 210.246 193.122 208.776 192.816 203.796C192.462 197.772 191.496 189.774 188.982 183.864C188.982 183.864 193.878 176.196 189 167.778L185.742 162.432L167.832 162.54L181.62 212.262L196.17 254.07L201.192 253.356C200.694 244.41 198.678 230.226 196.38 221.328H196.374Z" fill="#B97964"/>
<path opacity="0.2" d="M192.726 200.286L180.168 203.724L179.706 205.446L180.186 207.102L180.708 208.974C180.708 208.974 183.372 208.044 186.132 207.168C188.892 206.292 192.882 205.098 192.882 205.098L192.726 200.286Z" fill="black"/>
<path d="M194.37 266.904C194.838 266.214 195.438 265.578 196.134 265.026C196.134 265.026 197.688 262.2 196.452 256.374L199.26 254.37C200.232 253.704 201.48 253.53 202.392 253.938C202.518 253.998 202.632 254.07 202.728 254.16C203.13 254.652 203.49 255.174 203.802 255.72C204.834 257.592 205.716 259.536 206.442 261.546L205.866 261.816L204.024 258.24C203.448 257.004 202.776 259.068 203.01 260.568C203.244 262.068 203.13 263.88 199.554 265.554C195.45 267.492 193.65 268.164 194.364 266.91L194.37 266.904Z" fill="black"/>
<path d="M195.774 252.39C195.774 252.39 196.584 256.944 196.698 260.13C196.872 261.72 196.668 263.388 196.098 265.044C196.098 265.044 198.954 264.186 199.506 262.284C200.058 260.382 199.566 254.958 202.404 253.962C202.038 253.71 201.63 253.506 201.186 253.356L200.868 251.688C199.356 251.892 195.774 252.39 195.774 252.39Z" fill="#B97964"/>
<path d="M187.458 134.388L191.868 125.178C189.882 122.208 180.042 119.928 180.042 119.928L173.562 120.282C173.562 120.282 171.072 120.84 168.936 121.536C166.086 122.466 164.55 123.21 163.872 124.794C163.872 124.794 162.51 128.316 163.398 135.51C163.644 137.496 164.31 149.01 162.498 152.322L162.534 153.234C174.378 162.456 184.398 160.914 184.398 160.914C183.864 159.288 183.918 153.918 183.678 152.322C183.852 150.294 183.78 148.746 184.638 145.188C184.806 144.504 187.176 135.06 187.464 134.394L187.458 134.388Z" fill="#B97964"/>
<path d="M160.224 167.244L158.286 212.55L159.84 256.458L165.3 257.862C167.718 249.186 169.68 232.134 170.244 223.242C170.376 220.194 169.392 216.678 169.734 214.272C170.034 212.16 171.018 210.828 172.308 206.034C173.868 200.238 175.446 192.486 174.816 186.48C174.816 186.48 182.154 179.892 179.982 171.144L160.23 167.238L160.224 167.244Z" fill="#B97964"/>
<path opacity="0.2" d="M158.286 212.55C158.286 212.55 160.416 210.522 164.334 211.116C168.252 211.71 170.106 212.694 170.106 212.694L171.168 209.736L162.192 207.192L158.286 209.124V212.556V212.55Z" fill="black"/>
<path d="M152.964 266.785C153.678 266.359 154.494 266.035 155.358 265.831C155.358 265.831 157.968 263.935 159.312 258.127L162.708 257.503C163.872 257.311 165.078 257.683 165.726 258.439C165.816 258.547 165.888 258.661 165.936 258.781C166.092 259.399 166.194 260.023 166.248 260.647C166.386 262.777 166.362 264.913 166.17 267.043H165.534L165.384 263.023C165.384 261.655 163.902 263.245 163.482 264.703C163.062 266.161 162.186 267.751 158.238 267.751C153.696 267.769 151.782 267.613 152.964 266.773V266.785Z" fill="black"/>
<path d="M159.96 256.044C159.96 256.044 159.192 258.696 157.944 261.636C157.428 263.148 156.54 264.57 155.316 265.83C155.316 265.83 158.268 266.262 159.576 264.78C160.884 263.292 162.738 258.168 165.726 258.474C165.504 258.096 165.216 257.736 164.88 257.406C164.394 256.866 159.954 256.05 159.954 256.05L159.96 256.044Z" fill="#B97964"/>
<path d="M194.592 174.834C194.592 174.834 193.032 175.542 192.546 176.874C192.06 178.206 191.322 179.142 191.028 180.162C190.734 181.176 191.934 180.396 192.48 179.856C193.032 179.31 193.662 178.698 194.004 179.178C194.346 179.658 194.844 184.704 195.39 185.316C195.942 185.928 196.116 185.088 196.116 185.088C196.116 185.088 196.272 186.312 196.77 186.378C196.902 186.396 197.232 186.228 197.25 185.658C197.292 184.38 197.232 181.698 197.232 181.698C197.232 181.854 197.538 185.16 197.646 185.652C197.79 186.294 198.186 186.522 198.552 186.426C199.074 186.288 198.834 182.172 198.948 181.992C198.948 181.992 199.008 184.368 199.626 184.686C200.25 185.004 200.292 183.51 200.082 182.184C199.89 180.966 199.824 178.53 199.512 177.312C199.122 175.812 198.522 174.894 197.088 174.642C195.654 174.396 194.586 174.834 194.586 174.834H194.592Z" fill="#B97964"/>
<path d="M158.19 167.076C155.73 179.274 155.7 200.862 156.084 211.434C156.084 211.434 161.46 206.748 170.07 209.892C178.68 213.036 182.352 213.096 186.69 211.722C191.022 210.348 194.424 203.49 206.928 201.09C219.432 198.69 219.906 201.408 219.906 201.408C219.906 201.408 221.406 198.294 215.154 196.116C208.902 193.944 201.414 186.48 197.796 181.734C194.178 176.988 187.38 162.774 185.586 159.126C183.69 155.28 183.81 151.056 183.81 151.056L163.2 149.082C163.2 149.082 160.164 157.326 158.196 167.076H158.19Z" fill="#263238"/>
<path d="M181.968 120.426L179.082 122.742C175.956 125.25 171.684 124.362 169.236 121.194C166.134 121.98 164.652 122.472 164.652 122.472C164.652 122.472 162.51 128.31 163.398 135.504C163.644 137.49 164.31 149.004 162.498 152.316L162.534 153.228C174.378 162.45 184.398 160.908 184.398 160.908C183.864 159.282 183.984 153.63 183.744 152.04C183.918 150.012 183.78 148.746 184.638 145.188C184.806 144.504 187.794 135.648 188.082 134.982L191.736 124.77C189.03 122.022 181.968 120.432 181.968 120.432V120.426Z" fill="#263238"/>
<path d="M162.282 152.226L184.134 154.068L184.14 149.826L163.446 148.05L162.282 152.226Z" fill="#BF0002"/>
<path d="M155.904 128.142L160.452 137.238L164.352 134.748L166.998 122.088C166.998 122.088 164.616 122.07 162.678 123.546C160.848 124.938 155.904 128.142 155.904 128.142Z" fill="#263238"/>
<path opacity="0.2" d="M163.38 135.36C163.38 135.36 163.068 132.558 163.23 130.026L163.398 127.494C163.398 127.494 161.586 133.482 161.832 136.356L163.386 135.36H163.38Z" fill="black"/>
<path d="M186.378 134.97L188.406 142.134L196.956 136.842C196.956 136.842 193.98 124.866 191.1 124.506C188.22 124.146 186.372 134.97 186.372 134.97H186.378Z" fill="#263238"/>
<path opacity="0.2" d="M187.134 137.634L188.808 131.622L187.938 140.46L187.134 137.634Z" fill="black"/>
<path d="M224.118 175.974H114.702V267.966H224.118V175.974Z" fill="#BF0002"/>
<path opacity="0.2" d="M224.118 175.974H114.702V267.966H224.118V175.974Z" fill="black"/>
<path d="M118.188 171.528L122.868 142.512H143.712L148.956 171.228L118.188 171.528Z" fill="#BF0002"/>
<path opacity="0.3" d="M118.188 171.528L122.868 142.512H143.712L148.956 171.228L118.188 171.528Z" fill="white"/>
<path opacity="0.3" d="M140.772 171.156L148.956 171.228L143.712 142.512L140.772 171.156Z" fill="black"/>
<path d="M129.198 144.576C129.198 145.098 128.772 145.524 128.25 145.524C127.728 145.524 127.302 145.098 127.302 144.576C127.302 144.054 127.728 143.628 128.25 143.628C128.772 143.628 129.198 144.054 129.198 144.576Z" fill="#263238"/>
<path d="M138.348 144.576C138.348 145.098 137.922 145.524 137.4 145.524C136.878 145.524 136.452 145.098 136.452 144.576C136.452 144.054 136.878 143.628 137.4 143.628C137.922 143.628 138.348 144.054 138.348 144.576Z" fill="#263238"/>
<path d="M128.412 144.27C128.412 142.692 128.418 141.03 129.264 139.638C130.11 138.246 131.634 137.664 133.224 137.664C134.814 137.664 136.236 138.246 136.836 139.788C137.436 141.33 137.082 142.944 137.094 144.51C137.094 144.798 137.544 144.798 137.544 144.51C137.532 143.07 137.802 141.594 137.436 140.178C137.142 139.056 136.458 138.072 135.372 137.598C133.08 136.608 130.002 137.346 128.772 139.59C127.992 141.018 127.968 142.674 127.968 144.264C127.968 144.552 128.418 144.552 128.418 144.264L128.412 144.27Z" fill="#263238"/>
<path opacity="0.1" d="M144.564 169.668L143.712 142.512L140.772 171.156L144.564 169.668Z" fill="black"/>
<path d="M136.62 156.834H125.568L126.006 154.2H137.058L136.62 156.834Z" fill="white"/>
<path opacity="0.3" d="M224.118 175.194H114.702V180.636H224.118V175.194Z" fill="black"/>
<path d="M227.694 170.592H109.65V176.682H227.694V170.592Z" fill="#BF0002"/>
<path d="M177.828 208.332H156.294V222.048H177.828V208.332Z" fill="#263238"/>
<path opacity="0.3" d="M177.828 208.332H156.294V222.048H177.828V208.332Z" fill="white"/>
<path d="M179.184 206.784H154.932V212.526H179.184V206.784Z" fill="#263238"/>
<path opacity="0.3" d="M179.184 206.784H154.932V212.526H179.184V206.784Z" fill="white"/>
<path opacity="0.3" d="M177.828 212.574H156.294V213.99H177.828V212.574Z" fill="black"/>
<path opacity="0.3" d="M170.502 208.602H163.614C163.24 208.602 162.936 208.906 162.936 209.28V210.006C162.936 210.38 163.24 210.684 163.614 210.684H170.502C170.876 210.684 171.18 210.38 171.18 210.006V209.28C171.18 208.906 170.876 208.602 170.502 208.602Z" fill="black"/>
<path d="M184.344 221.97H89.8501V267.966H184.344V221.97Z" fill="#263238"/>
<path d="M102.306 208.62L101.856 208.596C101.874 208.272 101.886 207.924 101.904 207.57C102 205.254 102.126 202.368 103.368 200.43C104.658 198.42 106.842 197.226 109.866 196.872C112.596 196.554 115.356 197.712 116.904 199.818C118.596 202.116 118.722 205.158 118.704 208.08H118.254C118.266 205.236 118.146 202.278 116.538 200.088C115.08 198.108 112.482 197.022 109.914 197.322C107.034 197.658 104.958 198.786 103.74 200.676C102.558 202.512 102.444 205.332 102.348 207.594C102.33 207.948 102.318 208.296 102.3 208.62H102.306Z" fill="#263238"/>
<path d="M121.896 221.971H98.6699L101.058 206.875H120.006L121.896 221.971Z" fill="#BF0002"/>
<path opacity="0.3" d="M101.058 206.875C101.058 206.875 103.914 214.393 110.28 214.423C116.646 214.453 120.006 206.875 120.006 206.875C120.006 206.875 116.886 215.88 110.28 215.748C103.674 215.61 101.058 206.875 101.058 206.875Z" fill="black"/>
<path d="M112.254 211.687H108.474V212.419H112.254V211.687Z" fill="#263238"/>
<path d="M151.362 220.71C150.57 220.236 149.67 219.876 148.704 219.648C148.404 219.69 145.368 220.044 143.982 218.466C142.524 216.804 140.46 211.086 137.124 211.422C137.148 211.386 137.172 211.35 137.196 211.314C137.172 211.338 137.148 211.362 137.124 211.386C137.022 211.506 136.944 211.632 136.89 211.77C136.716 212.46 136.602 213.156 136.542 213.852C136.386 216.234 136.494 219.42 136.704 221.796H137.412L137.508 216.51C137.508 214.986 139.158 216.756 139.632 218.382C140.1 220.008 141.078 221.79 145.482 221.796C150.552 221.82 152.682 221.652 151.374 220.716L151.362 220.71Z" fill="#BF0002"/>
<path opacity="0.1" d="M151.362 220.71C150.57 220.236 149.67 219.876 148.704 219.648C148.404 219.69 145.368 220.044 143.982 218.466C142.524 216.804 140.46 211.086 137.124 211.422C137.148 211.386 137.172 211.35 137.196 211.314C137.172 211.338 137.148 211.362 137.124 211.386C137.022 211.506 136.944 211.632 136.89 211.77C136.716 212.46 136.602 213.156 136.542 213.852C136.386 216.234 136.494 219.42 136.704 221.796H137.412L137.508 216.51C137.508 214.986 139.158 216.756 139.632 218.382C140.1 220.008 141.078 221.79 145.482 221.796C150.552 221.82 152.682 221.652 151.374 220.716L151.362 220.71Z" fill="black"/>
<path d="M142.998 220.71C142.206 220.236 141.306 219.876 140.34 219.648C140.04 219.69 137.004 220.044 135.618 218.466C134.16 216.804 132.096 211.086 128.76 211.422C128.784 211.386 128.808 211.35 128.832 211.314C128.808 211.338 128.784 211.362 128.76 211.386C128.658 211.506 128.58 211.632 128.526 211.77C128.352 212.46 128.238 213.156 128.178 213.852C128.022 216.234 128.13 219.42 128.34 221.796H129.048L129.144 216.51C129.144 214.986 130.794 216.756 131.268 218.382C131.736 220.008 132.714 221.79 137.118 221.796C142.188 221.82 144.318 221.652 143.01 220.716L142.998 220.71Z" fill="#BF0002"/>
</svg>
